<svg xmlns="http://www.w3.org/2000/svg" viewBox="0 0 160 160">
  <rect x="0" y="0" width="160" height="160" rx="18" fill="#1a1a1a"/>
  <rect x="36" y="16" width="6" height="128" rx="3" fill="#444"/>
  <rect x="77" y="16" width="6" height="128" rx="3" fill="#444"/>
  <rect x="118" y="16" width="6" height="128" rx="3" fill="#444"/>
  <ellipse cx="39" cy="36" rx="16" ry="10" fill="#cc2020"/>
  <ellipse cx="39" cy="52" rx="16" ry="10" fill="#e03030"/>
  <ellipse cx="39" cy="68" rx="16" ry="10" fill="#e03030"/>
  <ellipse cx="39" cy="84" rx="16" ry="10" fill="#e03030"/>
  <ellipse cx="39" cy="100" rx="16" ry="10" fill="#e03030"/>
  <ellipse cx="39" cy="116" rx="16" ry="10" fill="#cc2020"/>
  <ellipse cx="80" cy="52" rx="16" ry="10" fill="#0077cc"/>
  <ellipse cx="80" cy="68" rx="16" ry="10" fill="#0099ee"/>
  <ellipse cx="80" cy="84" rx="16" ry="10" fill="#0099ee"/>
  <ellipse cx="80" cy="100" rx="16" ry="10" fill="#0099ee"/>
  <ellipse cx="80" cy="116" rx="16" ry="10" fill="#0077cc"/>
  <ellipse cx="121" cy="84" rx="16" ry="10" fill="#d09010"/>
  <ellipse cx="121" cy="100" rx="16" ry="10" fill="#f0b020"/>
  <ellipse cx="121" cy="116" rx="16" ry="10" fill="#f0b020"/>
  <rect x="10" y="128" width="140" height="6" rx="3" fill="#444"/>
</svg>
